<svg xmlns="http://www.w3.org/2000/svg" xmlns:xlink="http://www.w3.org/1999/xlink" width="739pt" height="551pt" viewBox="0.00 0.00 739.00 551.00">
<g id="graph0" class="graph" transform="scale(1 1) rotate(0) translate(4 547)">
<title>ScalingArchitecture</title>
<polygon fill="white" stroke="none" points="-4,4 -4,-547 735,-547 735,4 -4,4"/>
<g id="clust1" class="cluster">
<title>cluster_api</title>
<polygon fill="none" stroke="black" stroke-dasharray="5,2" points="183,-300.8 183,-400 538,-400 538,-300.8 183,-300.8"/>
<text xml:space="preserve" text-anchor="middle" x="360.5" y="-383.4" font-family="Times,serif" font-size="14.00">Stateless API Tier</text>
<text xml:space="preserve" text-anchor="middle" x="360.5" y="-366.6" font-family="Times,serif" font-size="14.00">(Horizontally Scalable)</text>
</g>
<g id="clust2" class="cluster">
<title>cluster_db</title>
<polygon fill="none" stroke="black" stroke-dasharray="5,2" points="8,-8 8,-266 263,-266 263,-8 8,-8"/>
<text xml:space="preserve" text-anchor="middle" x="135.5" y="-249.4" font-family="Times,serif" font-size="14.00">Stateful Data Layer</text>
</g>
<g id="clust3" class="cluster">
<title>cluster_replicas</title>
<polygon fill="none" stroke="black" stroke-dasharray="1,5" points="16,-16 16,-98.4 255,-98.4 255,-16 16,-16"/>
<text xml:space="preserve" text-anchor="middle" x="135.5" y="-81.8" font-family="Times,serif" font-size="14.00">Read Replicas</text>
</g>
<g id="clust4" class="cluster">
<title>cluster_legend</title>
<polygon fill="lightyellow" stroke="black" points="461,-435.8 461,-535 723,-535 723,-435.8 461,-435.8"/>
<text xml:space="preserve" text-anchor="middle" x="592" y="-518.4" font-family="Times,serif" font-size="14.00">Scaling Info</text>
</g>
<!-- LB -->
<g id="node1" class="node">
<title>LB</title>
<polygon fill="lightyellow" stroke="black" points="451.02,-519 268.98,-519 268.98,-427 451.02,-427 451.02,-519"/>
<text xml:space="preserve" text-anchor="middle" x="360" y="-502.4" font-family="Times,serif" font-size="14.00">Load Balancer</text>
<text xml:space="preserve" text-anchor="middle" x="360" y="-485.6" font-family="Times,serif" font-size="14.00">(nginx/AWS ALB)</text>
<text xml:space="preserve" text-anchor="middle" x="360" y="-468.8" font-family="Times,serif" font-size="14.00">- Routes /api/* to API servers</text>
<text xml:space="preserve" text-anchor="middle" x="360" y="-452" font-family="Times,serif" font-size="14.00">- Routes /ws/* to WebSocket</text>
<text xml:space="preserve" text-anchor="middle" x="360" y="-435.2" font-family="Times,serif" font-size="14.00">- Sticky sessions for WS</text>
</g>
<!-- API1 -->
<g id="node2" class="node">
<title>API1</title>
<polygon fill="lightblue" stroke="black" points="440.61,-350.4 369.39,-350.4 369.39,-308.8 440.61,-308.8 440.61,-350.4"/>
<text xml:space="preserve" text-anchor="middle" x="405" y="-333.8" font-family="Times,serif" font-size="14.00">API-1</text>
<text xml:space="preserve" text-anchor="middle" x="405" y="-317" font-family="Times,serif" font-size="14.00">(FastAPI)</text>
</g>
<!-- LB&#45;&gt;API1 -->
<g id="edge1" class="edge">
<title>LB-&gt;API1</title>
<path fill="none" stroke="gray" d="M374.36,-426.87C381.12,-405.62 389.02,-380.81 395.1,-361.7"/>
<polygon fill="gray" stroke="gray" points="398.38,-362.93 398.08,-352.34 391.71,-360.8 398.38,-362.93"/>
</g>
<!-- API2 -->
<g id="node3" class="node">
<title>API2</title>
<polygon fill="lightblue" stroke="black" points="529.61,-350.4 458.39,-350.4 458.39,-308.8 529.61,-308.8 529.61,-350.4"/>
<text xml:space="preserve" text-anchor="middle" x="494" y="-333.8" font-family="Times,serif" font-size="14.00">API-2</text>
<text xml:space="preserve" text-anchor="middle" x="494" y="-317" font-family="Times,serif" font-size="14.00">(FastAPI)</text>
</g>
<!-- LB&#45;&gt;API2 -->
<g id="edge2" class="edge">
<title>LB-&gt;API2</title>
<path fill="none" stroke="gray" d="M422.46,-426.54C432.17,-418.23 441.72,-409.24 450,-400 460.67,-388.09 470.42,-373.32 478.03,-360.46"/>
<polygon fill="gray" stroke="gray" points="480.96,-362.39 482.89,-351.97 474.88,-358.91 480.96,-362.39"/>
</g>
<!-- API3 -->
<g id="node4" class="node">
<title>API3</title>
<polygon fill="lightblue" stroke="black" points="262.61,-350.4 191.39,-350.4 191.39,-308.8 262.61,-308.8 262.61,-350.4"/>
<text xml:space="preserve" text-anchor="middle" x="227" y="-333.8" font-family="Times,serif" font-size="14.00">API-3</text>
<text xml:space="preserve" text-anchor="middle" x="227" y="-317" font-family="Times,serif" font-size="14.00">(FastAPI)</text>
</g>
<!-- LB&#45;&gt;API3 -->
<g id="edge3" class="edge">
<title>LB-&gt;API3</title>
<path fill="none" stroke="gray" d="M298.72,-426.88C288.95,-418.46 279.33,-409.35 271,-400 260.37,-388.07 250.61,-373.28 243,-360.43"/>
<polygon fill="gray" stroke="gray" points="246.15,-358.88 238.14,-351.94 240.08,-362.36 246.15,-358.88"/>
</g>
<!-- APIN -->
<g id="node5" class="node">
<title>APIN</title>
<polygon fill="lightblue" stroke="black" points="351.61,-350.4 280.39,-350.4 280.39,-308.8 351.61,-308.8 351.61,-350.4"/>
<text xml:space="preserve" text-anchor="middle" x="316" y="-333.8" font-family="Times,serif" font-size="14.00">API-N</text>
<text xml:space="preserve" text-anchor="middle" x="316" y="-317" font-family="Times,serif" font-size="14.00">(FastAPI)</text>
</g>
<!-- LB&#45;&gt;APIN -->
<g id="edge4" class="edge">
<title>LB-&gt;APIN</title>
<path fill="none" stroke="gray" d="M345.96,-426.87C339.34,-405.62 331.62,-380.81 325.68,-361.7"/>
<polygon fill="gray" stroke="gray" points="329.08,-360.85 322.76,-352.34 322.39,-362.93 329.08,-360.85"/>
</g>
<!-- PrimaryDB -->
<g id="node6" class="node">
<title>PrimaryDB</title>
<polygon fill="salmon" stroke="black" points="165.88,-233.2 30.12,-233.2 30.12,-158 165.88,-158 165.88,-233.2"/>
<text xml:space="preserve" text-anchor="middle" x="98" y="-216.6" font-family="Times,serif" font-size="14.00">PostgreSQL Primary</text>
<text xml:space="preserve" text-anchor="middle" x="98" y="-199.8" font-family="Times,serif" font-size="14.00">(Issues, Projects,</text>
<text xml:space="preserve" text-anchor="middle" x="98" y="-183" font-family="Times,serif" font-size="14.00">Users, Activity Logs,</text>
<text xml:space="preserve" text-anchor="middle" x="98" y="-166.2" font-family="Times,serif" font-size="14.00">Comments)</text>
</g>
<!-- API1&#45;&gt;PrimaryDB -->
<g id="edge5" class="edge">
<title>API1-&gt;PrimaryDB</title>
<path fill="none" stroke="gray" d="M383.33,-308.42C368.63,-296.07 348.09,-281.28 327,-274 296.08,-263.32 210.4,-278.09 180,-266 165.5,-260.23 151.71,-250.82 139.73,-240.76"/>
<polygon fill="gray" stroke="gray" points="142.29,-238.35 132.47,-234.37 137.66,-243.6 142.29,-238.35"/>
<text xml:space="preserve" text-anchor="middle" x="397.05" y="-278.2" font-family="Times,serif" font-size="14.00">Reads/Writes</text>
</g>
<!-- Replica2 -->
<g id="node8" class="node">
<title>Replica2</title>
<polygon fill="lightblue" stroke="black" points="126.34,-65.6 23.66,-65.6 23.66,-24 126.34,-24 126.34,-65.6"/>
<text xml:space="preserve" text-anchor="middle" x="75" y="-49" font-family="Times,serif" font-size="14.00">Read Replica-2</text>
<text xml:space="preserve" text-anchor="middle" x="75" y="-32.2" font-family="Times,serif" font-size="14.00">(for scale)</text>
</g>
<!-- API1&#45;&gt;Replica2 -->
<g id="edge8" class="edge">
<title>API1-&gt;Replica2</title>
<path fill="none" stroke="gray" d="M436.81,-308.49C448.15,-301 458.52,-293.62 460,-290.8 465.06,-281.17 486.67,-180.46 450,-141.2 376.13,-62.11 316.36,-120.03 209,-106.4 176.62,-102.29 165.93,-111.42 136,-98.4 122.88,-92.69 110.5,-83.14 100.36,-73.73"/>
<polygon fill="gray" stroke="gray" points="103.09,-71.5 93.49,-67.01 98.19,-76.5 103.09,-71.5"/>
<text xml:space="preserve" text-anchor="middle" x="517.39" y="-191.4" font-family="Times,serif" font-size="14.00">Reads (optional)</text>
</g>
<!-- Redis -->
<g id="node9" class="node">
<title>Redis</title>
<polygon fill="lightcyan" stroke="black" points="441.1,-250 320.9,-250 320.9,-141.2 441.1,-141.2 441.1,-250"/>
<text xml:space="preserve" text-anchor="middle" x="381" y="-233.4" font-family="Times,serif" font-size="14.00">Redis</text>
<text xml:space="preserve" text-anchor="middle" x="381" y="-216.6" font-family="Times,serif" font-size="14.00">(Single or Cluster)</text>
<text xml:space="preserve" text-anchor="middle" x="381" y="-199.8" font-family="Times,serif" font-size="14.00">- Board cache</text>
<text xml:space="preserve" text-anchor="middle" x="381" y="-183" font-family="Times,serif" font-size="14.00">- Rate limits</text>
<text xml:space="preserve" text-anchor="middle" x="381" y="-166.2" font-family="Times,serif" font-size="14.00">- Idempotency</text>
<text xml:space="preserve" text-anchor="middle" x="381" y="-149.4" font-family="Times,serif" font-size="14.00">- WS events</text>
</g>
<!-- API1&#45;&gt;Redis -->
<g id="edge13" class="edge">
<title>API1-&gt;Redis</title>
<path fill="none" stroke="gray" d="M432.26,-308.71C437.43,-303.51 442.13,-297.47 445,-290.8 447.95,-283.94 447.53,-281.03 445,-274 443.29,-269.26 441.16,-264.6 438.71,-260.07"/>
<polygon fill="gray" stroke="gray" points="441.81,-258.44 433.67,-251.66 435.81,-262.04 441.81,-258.44"/>
</g>
<!-- Replica1 -->
<g id="node7" class="node">
<title>Replica1</title>
<polygon fill="lightblue" stroke="black" points="247.34,-65.6 144.66,-65.6 144.66,-24 247.34,-24 247.34,-65.6"/>
<text xml:space="preserve" text-anchor="middle" x="196" y="-49" font-family="Times,serif" font-size="14.00">Read Replica-1</text>
<text xml:space="preserve" text-anchor="middle" x="196" y="-32.2" font-family="Times,serif" font-size="14.00">(for scale)</text>
</g>
<!-- API2&#45;&gt;Replica1 -->
<g id="edge9" class="edge">
<title>API2-&gt;Replica1</title>
<path fill="none" stroke="gray" d="M529.8,-312.95C548.73,-302.6 570.22,-287.03 581,-266 606.29,-216.64 611.72,-187.39 581,-141.2 545.6,-87.98 359.07,-61.78 259.22,-51.4"/>
<polygon fill="gray" stroke="gray" points="259.6,-47.92 249.29,-50.39 258.89,-54.88 259.6,-47.92"/>
<text xml:space="preserve" text-anchor="middle" x="648.51" y="-191.4" font-family="Times,serif" font-size="14.00">Reads (optional)</text>
</g>
<!-- API2&#45;&gt;Redis -->
<g id="edge14" class="edge">
<title>API2-&gt;Redis</title>
<path fill="none" stroke="gray" d="M482.97,-308.38C476.78,-297.73 468.6,-284.71 460,-274 455.92,-268.92 451.53,-263.82 446.99,-258.8"/>
<polygon fill="gray" stroke="gray" points="449.63,-256.5 440.26,-251.56 444.5,-261.27 449.63,-256.5"/>
</g>
<!-- API3&#45;&gt;PrimaryDB -->
<g id="edge6" class="edge">
<title>API3-&gt;PrimaryDB</title>
<path fill="none" stroke="gray" d="M191.16,-328.93C161.12,-327.06 119.83,-319.02 98.58,-290.8 88.84,-277.87 86.55,-260.85 87.4,-244.85"/>
<polygon fill="gray" stroke="gray" points="90.88,-245.24 88.36,-234.95 83.91,-244.56 90.88,-245.24"/>
<text xml:space="preserve" text-anchor="middle" x="136.29" y="-278.2" font-family="Times,serif" font-size="14.00">Reads/Writes</text>
</g>
<!-- API3&#45;&gt;Replica2 -->
<g id="edge10" class="edge">
<title>API3-&gt;Replica2</title>
<path fill="none" stroke="gray" d="M220.56,-308.33C218.92,-302.69 217.27,-296.54 216,-290.8 198.16,-209.85 246.56,-165.07 188,-106.4 171.48,-89.85 157.23,-108.19 136,-98.4 123.23,-92.51 111.08,-83.13 101.04,-73.92"/>
<polygon fill="gray" stroke="gray" points="103.5,-71.43 93.88,-67 98.64,-76.47 103.5,-71.43"/>
<text xml:space="preserve" text-anchor="middle" x="264.48" y="-191.4" font-family="Times,serif" font-size="14.00">Reads (optional)</text>
</g>
<!-- API3&#45;&gt;Redis -->
<g id="edge15" class="edge">
<title>API3-&gt;Redis</title>
<path fill="none" stroke="gray" d="M220.98,-308.35C218.91,-296.9 218.84,-283.11 227,-274 237.74,-262 284.21,-272.37 299,-266 305.04,-263.4 310.96,-260.2 316.7,-256.62"/>
<polygon fill="gray" stroke="gray" points="318.55,-259.59 324.9,-251.11 314.65,-253.78 318.55,-259.59"/>
</g>
<!-- APIN&#45;&gt;PrimaryDB -->
<g id="edge7" class="edge">
<title>APIN-&gt;PrimaryDB</title>
<path fill="none" stroke="gray" d="M285.69,-308.34C281.18,-305.66 276.53,-303.06 272,-300.8 232.88,-281.29 217.67,-288.18 180,-266 167.82,-258.83 155.68,-249.83 144.6,-240.71"/>
<polygon fill="gray" stroke="gray" points="147.02,-238.17 137.13,-234.38 142.5,-243.51 147.02,-238.17"/>
<text xml:space="preserve" text-anchor="middle" x="285.03" y="-278.2" font-family="Times,serif" font-size="14.00">Reads/Writes</text>
</g>
<!-- APIN&#45;&gt;Redis -->
<g id="edge16" class="edge">
<title>APIN-&gt;Redis</title>
<path fill="none" stroke="gray" d="M325.87,-308.55C332.26,-295.59 340.95,-277.93 349.55,-260.47"/>
<polygon fill="gray" stroke="gray" points="352.63,-262.13 353.91,-251.61 346.35,-259.04 352.63,-262.13"/>
</g>
<!-- PrimaryDB&#45;&gt;Replica1 -->
<g id="edge11" class="edge">
<title>PrimaryDB-&gt;Replica1</title>
<path fill="none" stroke="gray" d="M122.22,-157.82C138.99,-132.37 161,-98.94 176.61,-75.25"/>
<polygon fill="gray" stroke="gray" points="179.46,-77.28 182.04,-67 173.61,-73.43 179.46,-77.28"/>
<text xml:space="preserve" text-anchor="middle" x="188.05" y="-110.6" font-family="Times,serif" font-size="14.00">Replication</text>
</g>
<!-- PrimaryDB&#45;&gt;Replica2 -->
<g id="edge12" class="edge">
<title>PrimaryDB-&gt;Replica2</title>
<path fill="none" stroke="gray" d="M56.87,-157.64C48.15,-147.43 40.16,-135.69 35.46,-123.2 29.23,-106.63 37.01,-89 47.27,-74.75"/>
<polygon fill="gray" stroke="gray" points="49.86,-77.13 53.31,-67.11 44.37,-72.78 49.86,-77.13"/>
<text xml:space="preserve" text-anchor="middle" x="67.73" y="-110.6" font-family="Times,serif" font-size="14.00">Replication</text>
</g>
<!-- Info -->
<g id="node10" class="node">
<title>Info</title>
<polygon fill="lightblue" stroke="none" points="715.08,-502.2 468.92,-502.2 468.92,-443.8 715.08,-443.8 715.08,-502.2"/>
<text xml:space="preserve" text-anchor="middle" x="592" y="-485.6" font-family="Times,serif" font-size="14.00">100-5K concurrent: 3-5 API instances</text>
<text xml:space="preserve" text-anchor="middle" x="592" y="-468.8" font-family="Times,serif" font-size="14.00">5K-50K concurrent: 10-20 API instances</text>
<text xml:space="preserve" text-anchor="middle" x="592" y="-452" font-family="Times,serif" font-size="14.00">With sharding + Redis cluster</text>
</g>
</g>
</svg>